<?xml version="1.0" encoding="utf-8"?>
<!-- Generator: Adobe Illustrator 16.0.0, SVG Export Plug-In . SVG Version: 6.00 Build 0)  -->
<!DOCTYPE svg PUBLIC "-//W3C//DTD SVG 1.1//EN" "http://www.w3.org/Graphics/SVG/1.1/DTD/svg11.dtd">
<svg version="1.1" id="Layer_1" xmlns="http://www.w3.org/2000/svg" xmlns:xlink="http://www.w3.org/1999/xlink" x="0px" y="0px"
	 width="102.161px" height="120px" viewBox="0 0 102.161 120" enable-background="new 0 0 102.161 120" xml:space="preserve">
<g>
	<text transform="matrix(1 0 0 1 0 41.7041)" fill="#929070" font-family="'MyriadPro-Regular'" font-size="13.9837"> </text>
	<g>
		<polygon class="logo" fill="#fff" points="0,63.838 6.66,63.838 6.66,54.783 13.39,54.783 13.39,49.311 6.66,49.311 6.66,45.405 
			13.781,45.405 13.781,39.684 0,39.684 		"/>
		<path class="logo" fill="#fff" d="M21.987,54.994h0.252l4.544,8.844h8.083l-4.328-7.4c-0.532-0.936-1.105-1.838-1.753-2.803
			c2.791-1.007,4.404-3.773,4.404-6.648c0-5.382-3.439-7.571-9.595-7.571c-3.042,0-6.012,0.032-8.262,0.181v24.242h6.654V54.994
			L21.987,54.994z M21.987,44.981c0.212-0.04,0.817-0.072,1.25-0.072c2.184,0,2.932,1.146,2.932,2.586
			c0,1.793-1.247,2.758-3.079,2.758c-0.35,0-0.85-0.033-1.103-0.074V44.981z"/>
		<polygon class="logo" fill="#fff" points="6.66,65.493 0,65.493 0,89.63 13.316,89.63 13.316,83.692 6.66,83.692 		"/>
		<polygon class="logo" fill="#fff" points="15.45,89.63 29.581,89.63 29.581,83.878 22.104,83.878 22.104,79.979 29.187,79.979 
			29.187,74.527 22.104,74.527 22.104,71.134 29.581,71.134 29.581,65.493 15.45,65.493 		"/>
		<polygon class="logo" fill="#fff" points="31.259,71.263 36.477,71.263 36.477,89.695 43.132,89.695 43.132,71.263 48.365,71.263 
			48.365,65.556 31.259,65.556 		"/>
		<rect x="49.818" y="65.493" class="logo" fill="#fff" width="6.654" height="24.137"/>
		<path class="logo" fill="#fff" d="M70.501,83.815c-3.755,0-5.368-2.266-5.368-6.446c0-3.899,1.972-6.085,5.132-6.085
			c1.358,0,2.741,0.233,3.888,0.551l0.759-6.023c-1.395-0.361-3.076-0.573-4.646-0.573c-7.912,0-12.455,5.197-12.455,13.234
			c0,4.877,1.953,11.413,11.441,11.413c3.569-0.055,5.687-0.815,5.687-0.815l-0.785-5.932
			C73.155,83.564,71.541,83.815,70.501,83.815z"/>
		<path class="logo" fill="#fff" d="M82.614,72.321c0-0.932,0.785-1.674,2.641-1.674c1.479,0,2.907,0.252,4.299,0.637l0.36-5.685
			c-1.499-0.255-3.181-0.383-4.407-0.383c-6.366,0-10.045,3.034-10.045,7.765c0,8.186,9.008,6.127,9.008,9.586
			c0,1.104-1.027,1.777-2.642,1.777c-1.839,0-3.834-0.4-5.154-0.846l-0.355,6.004c0,0,0,0,4.966,0.497
			c6.394,0.043,10.35-3.614,10.35-8.386C91.635,74.147,82.614,75.331,82.614,72.321z"/>
		<polygon class="logo" fill="#fff" points="35.597,63.838 49.746,63.838 49.746,58.07 42.251,58.07 42.251,54.176 49.34,54.176 49.34,48.737 
			42.251,48.737 42.251,45.332 49.746,45.332 49.746,39.684 35.597,39.684 		"/>
		<polygon class="logo" fill="#fff" points="66.067,58.07 58.595,58.07 58.595,54.176 65.684,54.176 65.684,48.737 58.595,48.737 
			58.595,45.332 66.067,45.332 66.067,39.684 51.93,39.684 51.93,63.838 66.067,63.838 		"/>
		<polygon class="logo" fill="#fff" points="73.193,58.769 75.039,59.284 75.039,36.062 68.89,42.066 		"/>
		<polygon class="logo" fill="#fff" points="102.161,51.356 97.873,34.646 81.241,30 76.381,34.749 76.381,59.66 89.817,63.415 		"/>
	</g>
</g>
</svg>
