<?xml version="1.0" encoding="utf-8"?>
<!-- Generator: Adobe Illustrator 16.0.0, SVG Export Plug-In . SVG Version: 6.00 Build 0)  -->
<!DOCTYPE svg PUBLIC "-//W3C//DTD SVG 1.1//EN" "http://www.w3.org/Graphics/SVG/1.1/DTD/svg11.dtd">
<svg version="1.1" id="Layer_1" xmlns="http://www.w3.org/2000/svg" xmlns:xlink="http://www.w3.org/1999/xlink" x="0px" y="0px"
	 width="58.518px" height="120px" viewBox="0 0 58.518 120" enable-background="new 0 0 58.518 120" xml:space="preserve">
<g>
	<g>
		<path class="logo" fill="#fff" d="M4.834,50.656h7.736c6.589,0,8.309-3.726,8.309-8.596V28.309C20.878,23.725,19.159,20,12.569,20H4.834
			V50.656L4.834,50.656z M9.705,22.578h2.578c2.578,0,3.725,1.433,3.725,5.443v14.613c0,4.011-1.146,5.442-3.725,5.442H9.705V22.578
			L9.705,22.578z M51.534,20v23.207c0,2.865-0.572,4.871-3.151,4.871c-2.578,0-3.151-2.006-3.151-4.871V20h-4.87v24.64
			c0,2.865,2.292,6.017,6.589,6.017h3.152c4.011,0,6.303-3.151,6.303-6.017V20H51.534L51.534,20z M38.068,20H22.598v2.865h5.157
			v27.791h5.443V22.865h4.87V20L38.068,20z"/>
		<path class="logo" fill="#fff" d="M58.518,66.17l-12.496,5.486c-16.152-5.486-17.371-5.486-33.525,0L0,66.17l12.496-5.791
			c16.153,5.485,17.372,5.485,33.525,0L58.518,66.17L58.518,66.17z M58.518,80.189L46.021,85.98
			c-16.152-5.486-17.371-5.486-33.525,0L0,80.189l12.496-5.79c16.153,5.485,17.372,5.485,33.525,0L58.518,80.189L58.518,80.189z
			 M58.518,94.21L46.021,100c-16.152-5.486-17.371-5.486-33.525,0L0,94.21l12.496-5.791c16.153,5.485,17.372,5.485,33.525,0
			L58.518,94.21L58.518,94.21z"/>
	</g>
</g>
</svg>
