<?xml version="1.0" encoding="utf-8"?>
<!-- Generator: Adobe Illustrator 16.0.0, SVG Export Plug-In . SVG Version: 6.00 Build 0)  -->
<!DOCTYPE svg PUBLIC "-//W3C//DTD SVG 1.1//EN" "http://www.w3.org/Graphics/SVG/1.1/DTD/svg11.dtd">
<svg version="1.1" id="Layer_1" xmlns="http://www.w3.org/2000/svg" xmlns:xlink="http://www.w3.org/1999/xlink" x="0px" y="0px"
	 width="110px" height="120px" viewBox="0 0 110 120" enable-background="new 0 0 110 120" xml:space="preserve">
<g>
	<g>
		<path class="logo" fill="#fff" d="M82.723,81.579c-0.492,0-0.846,0.174-1.091,0.459c-0.281,0.35-0.492,0.879-0.633,1.617l-1.055,4.396
			l-1.373-5.102c-0.211-0.912-0.738-1.371-1.548-1.371c-0.493,0-0.951,0.174-1.267,0.459c-0.317,0.281-0.492,0.633-0.492,1.088
			c0,0.141,0.034,0.389,0.105,0.74c0.104,0.316,0.247,0.773,0.423,1.334l1.934,5.525c0.106,0.281,0.178,0.527,0.178,0.705
			c0,0.104-0.071,0.211-0.178,0.279c-0.14,0.105-0.387,0.141-0.738,0.141c-0.423,0-0.773,0.107-1.021,0.246
			c-0.245,0.176-0.35,0.459-0.35,0.879c0,0.457,0.176,0.846,0.528,1.092c0.349,0.281,0.878,0.387,1.581,0.387
			c0.422,0,0.811-0.035,1.196-0.105c0.388-0.104,0.739-0.246,1.091-0.455c0.316-0.176,0.632-0.494,0.915-0.846
			c0.282-0.389,0.491-0.844,0.703-1.406l2.111-6.158c0.246-0.668,0.422-1.195,0.526-1.584c0.107-0.387,0.143-0.633,0.143-0.775
			c0-0.49-0.143-0.842-0.458-1.156C83.604,81.718,83.181,81.579,82.723,81.579z"/>
		<path class="logo" fill="#fff" d="M61.087,81.579c-0.492,0-0.844,0.105-1.092,0.316c-0.245,0.213-0.422,0.492-0.49,0.846l-1.128,5.172
			l-1.089-4.576c-0.071-0.35-0.142-0.666-0.247-0.877c-0.07-0.211-0.176-0.387-0.316-0.529c-0.143-0.139-0.317-0.211-0.528-0.246
			c-0.212-0.07-0.528-0.105-0.879-0.105c-0.353,0-0.636,0.035-0.844,0.105c-0.213,0.035-0.39,0.107-0.495,0.246
			c-0.176,0.143-0.28,0.318-0.351,0.529c-0.105,0.211-0.177,0.527-0.248,0.877l-0.948,4.576l-1.266-5.172
			c-0.071-0.354-0.246-0.633-0.459-0.846c-0.243-0.211-0.631-0.316-1.089-0.316c-0.527,0-0.95,0.174-1.268,0.459
			c-0.281,0.281-0.423,0.633-0.423,1.053c0,0.211,0,0.424,0.072,0.668c0.069,0.248,0.139,0.564,0.28,0.951l1.548,4.855
			c0.143,0.385,0.281,0.67,0.387,0.879c0.106,0.246,0.248,0.424,0.388,0.492c0.141,0.141,0.317,0.211,0.563,0.246
			c0.175,0.072,0.455,0.072,0.809,0.072c0.773,0,1.301-0.107,1.688-0.318c0.353-0.211,0.598-0.701,0.772-1.443l0.882-3.867
			l0.879,3.867c0.176,0.742,0.456,1.232,0.845,1.443c0.351,0.211,0.914,0.318,1.688,0.318c0.316,0,0.597,0,0.81-0.072
			c0.175-0.035,0.352-0.105,0.526-0.246c0.141-0.068,0.281-0.246,0.422-0.492c0.107-0.209,0.247-0.494,0.354-0.879l1.583-4.855
			c0.104-0.387,0.212-0.703,0.245-0.951c0.071-0.244,0.106-0.457,0.106-0.668c0-0.42-0.177-0.771-0.457-1.053
			C62.002,81.753,61.579,81.579,61.087,81.579z"/>
		<path class="logo" fill="#fff" d="M74.103,88.335v-4.012c0-0.564-0.139-1.021-0.456-1.373c-0.316-0.352-0.703-0.631-1.196-0.842
			c-0.492-0.178-0.985-0.318-1.548-0.424c-0.562-0.07-1.126-0.105-1.688-0.105c-1.268,0-2.323,0.211-3.134,0.631
			c-0.843,0.424-1.264,0.951-1.264,1.619c0,0.74,0.388,1.127,1.126,1.127c0.28,0,0.491-0.035,0.703-0.141
			c0.176-0.105,0.424-0.246,0.703-0.422c0.317-0.246,0.598-0.424,0.879-0.527c0.247-0.107,0.528-0.176,0.916-0.176
			c0.95,0,1.442,0.316,1.442,0.914c0,0.281-0.141,0.492-0.423,0.635c-0.279,0.139-0.774,0.209-1.478,0.244
			c-0.879,0.07-1.616,0.176-2.216,0.354c-0.6,0.141-1.091,0.352-1.443,0.596c-0.385,0.283-0.598,0.564-0.773,0.881
			c-0.14,0.352-0.21,0.701-0.21,1.09c0,0.949,0.315,1.689,0.913,2.145c0.634,0.459,1.442,0.707,2.498,0.707
			c0.669,0,1.302-0.107,1.899-0.354c0.562-0.211,1.021-0.598,1.337-1.125c0.071,0.459,0.248,0.809,0.529,1.092
			c0.28,0.244,0.702,0.387,1.301,0.387c0.456,0,0.879-0.107,1.231-0.318c0.315-0.211,0.456-0.562,0.456-0.949
			c0-0.141,0-0.389-0.034-0.668C74.139,88.896,74.103,88.544,74.103,88.335z M70.585,87.913c0,0.385-0.14,0.703-0.492,0.947
			c-0.317,0.281-0.704,0.389-1.231,0.389c-0.28,0-0.563-0.072-0.773-0.248c-0.213-0.178-0.317-0.385-0.317-0.633
			c0-0.389,0.142-0.633,0.456-0.773c0.176-0.07,0.458-0.141,0.916-0.211c0.386-0.07,0.667-0.107,0.915-0.176
			c0.211-0.072,0.388-0.178,0.526-0.316L70.585,87.913L70.585,87.913z"/>
		<path class="logo" fill="#fff" d="M103.937,88.335v-4.012c0-0.564-0.141-1.021-0.456-1.373c-0.317-0.352-0.704-0.631-1.196-0.842
			c-0.492-0.178-0.985-0.318-1.549-0.424c-0.562-0.07-1.126-0.105-1.653-0.105c-1.302,0-2.356,0.211-3.166,0.631
			c-0.846,0.424-1.232,0.951-1.232,1.619c0,0.74,0.353,1.127,1.091,1.127c0.282,0,0.492-0.035,0.705-0.141
			c0.174-0.105,0.421-0.246,0.703-0.422c0.316-0.246,0.598-0.424,0.878-0.527c0.247-0.107,0.529-0.176,0.917-0.176
			c0.984,0,1.44,0.316,1.44,0.914c0,0.281-0.104,0.492-0.42,0.635c-0.283,0.139-0.74,0.209-1.444,0.244
			c-0.88,0.07-1.653,0.176-2.251,0.354c-0.599,0.141-1.092,0.352-1.442,0.596c-0.352,0.283-0.598,0.564-0.773,0.881
			c-0.143,0.352-0.211,0.701-0.211,1.09c0,0.949,0.315,1.689,0.912,2.145c0.637,0.459,1.479,0.707,2.535,0.707
			c0.633,0,1.267-0.107,1.864-0.354c0.563-0.211,1.02-0.598,1.337-1.125c0.069,0.459,0.246,0.809,0.527,1.092
			c0.317,0.244,0.703,0.387,1.301,0.387c0.458,0,0.879-0.107,1.232-0.318c0.316-0.211,0.457-0.562,0.457-0.949
			c0-0.141,0-0.389-0.036-0.668C103.974,88.896,103.937,88.544,103.937,88.335z M100.418,87.913c0,0.385-0.14,0.703-0.456,0.947
			c-0.353,0.281-0.739,0.389-1.23,0.389c-0.319,0-0.6-0.072-0.811-0.248c-0.212-0.178-0.316-0.385-0.316-0.633
			c0-0.389,0.143-0.633,0.455-0.773c0.178-0.07,0.493-0.141,0.918-0.211c0.386-0.07,0.667-0.107,0.913-0.176
			c0.212-0.072,0.387-0.178,0.527-0.316V87.913L100.418,87.913z"/>
		<path class="logo" fill="#fff" d="M107.808,87.173c-0.562,0-1.021,0.213-1.408,0.598c-0.387,0.352-0.597,0.846-0.597,1.371
			c0,0.564,0.21,1.021,0.597,1.406c0.387,0.389,0.846,0.562,1.408,0.562c0.526,0,0.984-0.174,1.371-0.562
			c0.389-0.385,0.564-0.842,0.564-1.406c0-0.525-0.176-1.02-0.564-1.371C108.792,87.386,108.334,87.173,107.808,87.173z"/>
		<path class="logo" fill="#fff" d="M91.271,81.579c-0.49,0-0.949,0.211-1.302,0.631c-0.385,0.424-0.737,1.092-1.055,1.938l-0.035-0.703
			c0-0.635-0.139-1.125-0.422-1.406c-0.281-0.285-0.703-0.459-1.195-0.459c-0.457,0-0.845,0.174-1.162,0.459
			c-0.317,0.312-0.457,0.771-0.457,1.371v6.051c0,0.598,0.14,1.055,0.457,1.336c0.352,0.314,0.772,0.457,1.338,0.457
			c0.561,0,0.983-0.143,1.302-0.457c0.35-0.281,0.492-0.738,0.492-1.336v-2.533c0-0.562,0.141-0.951,0.387-1.197
			c0.245-0.281,0.633-0.457,1.162-0.6l0.982-0.244c0.67-0.141,0.987-0.705,0.987-1.619c0-0.457-0.107-0.879-0.353-1.195
			C92.153,81.753,91.799,81.579,91.271,81.579z"/>
		<path class="logo" fill="#fff" d="M61.641,39.358c0.017-0.039,0.035-0.076,0.035-0.098c0.06-0.113,0.117-0.209,0.193-0.285
			c0.019-0.02,0.038-0.039,0.038-0.039c0.211-0.209,0.46-0.326,0.745-0.326c0.038,0,0.078,0,0.134,0.02
			c0.229,0.02,0.422,0.115,0.593,0.307c0.02,0,0.04,0.02,0.04,0.039c0.095,0.076,0.153,0.172,0.19,0.285
			c0.019,0.021,0.036,0.059,0.036,0.096l5.778,30.955c0.059,0.4,0.173,0.783,0.346,1.166c0.399,0.957,1.091,1.838,2.085,2.602
			c0.649,0.498,1.34,0.898,2.066,1.205c0.936,0.402,1.969,0.631,3.06,0.729c0.325,0.018,0.631,0.037,0.976,0.037
			c0.326,0,0.65-0.02,0.956-0.037c1.112-0.098,2.125-0.324,3.062-0.729c0.746-0.305,1.435-0.707,2.066-1.205
			c0.993-0.764,1.701-1.645,2.104-2.602c0.153-0.383,0.267-0.766,0.343-1.166l2.64-14.158h0.001l3.118-16.797
			c0.02-0.037,0.039-0.074,0.039-0.096c0.056-0.113,0.113-0.209,0.192-0.285c0.018-0.02,0.036-0.039,0.036-0.039
			c0.212-0.211,0.46-0.326,0.746-0.326c0.038,0,0.076,0,0.135,0.02c0.229,0.02,0.421,0.113,0.592,0.307
			c0.019,0,0.039,0.02,0.039,0.039c0.096,0.074,0.154,0.172,0.19,0.285c0.019,0.02,0.039,0.059,0.039,0.096l6.714,35.928H110
			l-8.206-43.998c-0.078-0.402-0.191-0.785-0.345-1.168c-0.42-0.957-1.11-1.836-2.104-2.604c-0.611-0.496-1.302-0.877-2.011-1.184
			c-0.361-0.152-0.727-0.268-1.088-0.383c-0.65-0.172-1.32-0.307-2.028-0.365c-0.307-0.018-0.631-0.037-0.956-0.037
			c-0.346,0-0.652,0.02-0.976,0.037c-1.108,0.096-2.162,0.346-3.1,0.748c-0.728,0.307-1.396,0.688-2.028,1.184
			c-0.993,0.768-1.682,1.646-2.084,2.604c-0.172,0.383-0.288,0.764-0.345,1.168l-4.631,24.867l-1.147,6.084
			c0,0.037-0.021,0.076-0.04,0.098c-0.036,0.113-0.095,0.207-0.189,0.285c0,0.018-0.019,0.037-0.039,0.037
			c-0.19,0.211-0.439,0.326-0.727,0.326c-0.286,0-0.535-0.115-0.747-0.326c0,0-0.018-0.02-0.037-0.037
			c-0.075-0.078-0.134-0.172-0.191-0.285c0-0.021-0.019-0.061-0.038-0.098l-5.757-30.951c-0.077-0.404-0.192-0.785-0.344-1.168
			c-0.403-0.957-1.11-1.836-2.105-2.604c-0.612-0.496-1.301-0.877-2.009-1.184c-0.363-0.152-0.727-0.268-1.09-0.383
			c-0.651-0.174-1.321-0.307-2.028-0.365c-0.308-0.018-0.63-0.037-0.957-0.037c-0.344,0-0.649,0.02-0.977,0.037
			c-1.108,0.096-2.159,0.346-3.098,0.748c-0.727,0.307-1.396,0.688-2.027,1.184c-0.997,0.768-1.684,1.646-2.086,2.604
			c-0.173,0.381-0.285,0.764-0.344,1.166l-5.777,30.951c0,0.039-0.019,0.078-0.039,0.098c-0.035,0.113-0.094,0.209-0.189,0.287
			c0,0.018-0.02,0.037-0.039,0.037c-0.192,0.211-0.441,0.326-0.727,0.326c-0.288,0-0.536-0.115-0.747-0.326
			c0,0-0.019-0.02-0.037-0.037c-0.078-0.078-0.135-0.174-0.191-0.287c0-0.02-0.019-0.059-0.039-0.098l-3.271-17.561l-2.487-13.391
			c-0.077-0.402-0.189-0.785-0.344-1.166c-0.402-0.957-1.11-1.836-2.104-2.604c-0.613-0.496-1.303-0.877-2.011-1.184
			c-0.362-0.154-0.727-0.27-1.089-0.385c-0.651-0.172-1.321-0.305-2.029-0.363c-0.305-0.02-0.63-0.037-0.956-0.037
			c-0.345,0-0.649,0.018-0.975,0.037c-1.109,0.1-2.162,0.346-3.1,0.748c-0.728,0.307-1.416,0.689-2.028,1.184
			c-0.994,0.768-1.684,1.646-2.085,2.604c-0.172,0.383-0.286,0.766-0.345,1.168l-4.63,24.869l-1.146,6.082
			c0,0.039-0.021,0.076-0.04,0.098c-0.037,0.113-0.095,0.207-0.19,0.285c0,0.02-0.019,0.039-0.039,0.039
			c-0.19,0.209-0.439,0.326-0.727,0.326c-0.286,0-0.535-0.117-0.746-0.326c0,0-0.019-0.02-0.038-0.039
			c-0.076-0.078-0.133-0.172-0.191-0.285c0-0.021-0.02-0.061-0.038-0.098l-3.271-17.561L9.032,26.331H0l3.425,18.346h0.002
			l4.781,25.635c0.058,0.4,0.173,0.783,0.344,1.166c0.404,0.957,1.092,1.838,2.087,2.602c0.649,0.498,1.339,0.9,2.064,1.207
			c0.938,0.402,1.973,0.629,3.062,0.727c0.325,0.018,0.633,0.039,0.976,0.039c0.326,0,0.65-0.02,0.956-0.039
			c1.109-0.096,2.126-0.324,3.062-0.727c0.745-0.307,1.433-0.709,2.064-1.207c0.996-0.764,1.702-1.645,2.104-2.602
			c0.154-0.383,0.27-0.764,0.346-1.166l5.758-30.953c0.018-0.039,0.038-0.078,0.038-0.098c0.057-0.113,0.115-0.209,0.191-0.285
			c0.02-0.02,0.039-0.039,0.039-0.039c0.21-0.211,0.458-0.324,0.745-0.324c0.038,0,0.077,0,0.134,0.02
			c0.229,0.018,0.421,0.115,0.593,0.305c0.02,0,0.037,0.02,0.037,0.039c0.097,0.078,0.155,0.172,0.192,0.285
			c0.018,0.02,0.039,0.061,0.039,0.098l0.993,5.318h0.002l4.781,25.635c0.06,0.402,0.174,0.783,0.345,1.166
			c0.403,0.957,1.091,1.838,2.086,2.602c0.65,0.498,1.34,0.9,2.065,1.207c0.938,0.398,1.971,0.631,3.061,0.727
			c0.324,0.018,0.631,0.039,0.977,0.039c0.326,0,0.65-0.021,0.955-0.039c1.11-0.096,2.124-0.328,3.062-0.727
			c0.745-0.307,1.416-0.709,2.065-1.207c0.997-0.764,1.702-1.645,2.104-2.602c0.153-0.383,0.268-0.764,0.346-1.166L61.641,39.358z"
			/>
	</g>
</g>
</svg>
