<?xml version="1.0" encoding="utf-8"?>
<!-- Generator: Adobe Illustrator 15.1.0, SVG Export Plug-In . SVG Version: 6.00 Build 0)  -->
<!DOCTYPE svg PUBLIC "-//W3C//DTD SVG 1.1//EN" "http://www.w3.org/Graphics/SVG/1.1/DTD/svg11.dtd">
<svg version="1.1" id="Layer_1" xmlns="http://www.w3.org/2000/svg" xmlns:xlink="http://www.w3.org/1999/xlink" x="0px" y="0px"
	 width="90px" height="120px" viewBox="0 0 90 120" enable-background="new 0 0 90 120" xml:space="preserve">
<g>
	<g>
		<path fill="#FFFFFF" d="M10.768,69.202v9.952c-0.814-0.622-1.915-0.957-3.397-0.957C3.253,78.197,0,82.026,0,91.5
			c0,10.385,3.637,11.583,7.8,11.583c2.967,0,5.264-0.671,6.842-1.437V67.434C11.485,67.434,10.768,67.434,10.768,69.202z
			 M10.768,98.867c-0.766,0.528-1.771,0.722-2.825,0.722c-2.248,0-3.588-1.342-3.588-8.52c0-7.847,2.106-9.477,4.212-9.477
			c1.002,0,1.577,0.147,2.201,0.623L10.768,98.867L10.768,98.867z"/>
		<path fill="#FFFFFF" d="M31.815,85.903c0-5.169-2.057-7.704-6.075-7.704c-4.209,0-8.472,1.722-8.472,13.685
			c0,9.332,3.207,11.199,7.656,11.199c3.591,0,6.604-1.15,6.604-2.633c0-0.766-0.095-1.915-0.334-2.632
			c-1.627,0.908-3.541,1.482-5.455,1.482c-2.918,0-4.259-1.34-4.451-6.412c2.296,0,6.698-0.144,10-0.764
			C31.672,90.401,31.815,88.007,31.815,85.903z M27.796,89.206c-1.673,0.478-4.641,0.573-6.459,0.525
			c0.288-6.459,2.01-8.137,3.972-8.137c2.057,0,2.679,1.292,2.728,4.74C28.036,87.241,27.986,88.343,27.796,89.206z"/>
		<path fill="#FFFFFF" d="M48.91,85.903c0-5.169-2.058-7.704-6.077-7.704c-4.209,0-8.471,1.722-8.471,13.685
			c0,9.332,3.207,11.199,7.657,11.199c3.59,0,6.603-1.15,6.603-2.633c0-0.766-0.096-1.915-0.334-2.632
			c-1.627,0.908-3.541,1.482-5.455,1.482c-2.919,0-4.259-1.34-4.45-6.412c2.296,0,6.698-0.144,10-0.764
			C48.767,90.401,48.91,88.007,48.91,85.903z M44.892,89.206c-1.674,0.478-4.641,0.573-6.459,0.525
			c0.289-6.459,2.009-8.137,3.972-8.137c2.057,0,2.679,1.292,2.728,4.74C45.131,87.241,45.082,88.343,44.892,89.206z"/>
		<path fill="#FFFFFF" d="M58.48,78.199c-2.583,0-5.024,0.669-6.986,1.915v30.241c0,1.29,0.526,1.675,1.866,1.675
			c0.622,0,1.388-0.097,2.009-0.334v-9.954c0.72,0.717,2.011,1.341,3.78,1.341c3.254,0,7.131-2.06,7.131-14.932
			C66.281,80.305,63.216,78.199,58.48,78.199z M57.954,99.59c-0.956,0-1.916-0.479-2.585-1.581V82.506
			c0.815-0.574,1.771-0.911,2.92-0.911c2.439,0,3.685,1.292,3.685,6.988C61.973,98.535,59.436,99.59,57.954,99.59z"/>
		<path fill="#FFFFFF" d="M68.958,69.202v33.4c3.874,0,3.874,0,3.874-0.766V67.433C69.722,67.434,68.958,67.434,68.958,69.202z"/>
		<path fill="#FFFFFF" d="M90,85.903c0-5.169-2.057-7.704-6.076-7.704c-4.212,0-8.472,1.722-8.472,13.685
			c0,9.332,3.206,11.199,7.655,11.199c3.591,0,6.604-1.15,6.604-2.633c0-0.766-0.095-1.915-0.335-2.632
			c-1.627,0.908-3.541,1.482-5.453,1.482c-2.92,0-4.259-1.34-4.45-6.412c2.296,0,6.696-0.144,9.997-0.764
			C89.858,90.401,90,88.007,90,85.903z M85.981,89.206c-1.677,0.478-4.641,0.573-6.46,0.525c0.288-6.459,2.01-8.137,3.972-8.137
			c2.058,0,2.68,1.294,2.729,4.74C86.221,87.241,86.172,88.343,85.981,89.206z"/>
		<path fill="#FFFFFF" d="M86.899,72.628v-1.463h0.381c0.191,0.143,0.493,0.557,0.572,1.59c0.111,0.016,0.317,0.016,0.397,0.016
			c0.222,0,0.254-0.048,0.254-0.158c-0.078-0.954-0.429-1.431-0.651-1.641c0.315-0.204,0.541-0.554,0.541-1.079
			c0-0.731-0.397-1.16-1.287-1.16h-0.7c-0.111,0-0.111,0.08-0.111,0.08v3.942C86.836,72.755,86.899,72.755,86.899,72.628z
			 M86.899,69.257L86.899,69.257h0.286c0.431,0,0.572,0.239,0.572,0.589c0,0.557-0.223,0.779-0.606,0.779h-0.252V69.257z"/>
		<path fill="#FFFFFF" d="M87.185,73.917c1.763,0,2.815-1.189,2.815-3.182c0-2.059-0.899-3.1-2.673-3.1
			c-1.298,0-2.846,0.545-2.846,3.148C84.482,72.892,85.366,73.917,87.185,73.917z M87.328,68.191c1.416,0,2.115,0.763,2.115,2.545
			c0,1.907-1.003,2.623-2.258,2.623c-1.368,0-2.146-0.621-2.146-2.575C85.04,68.843,85.977,68.191,87.328,68.191z"/>
		<path fill="#FFFFFF" d="M69.405,15.287c-1.609-2.093-2.809-3.385-4.533-4.713c-0.326-0.256-0.651-0.499-0.973-0.714
			c0.003,0.001,0.006,0.003,0.007,0.005c-0.018-0.014-0.037-0.025-0.055-0.04c0.294,0.202,0.598,0.448,0.909,0.722
			c-0.298-0.241-0.596-0.484-0.906-0.719c-10.951-7.305-18.734,8.27-16.389,23.266c0.534,0.374,1.551,1.215,2.574,1.146
			c-0.964-9.955-1.028-20.115,5.574-23.939c3.871-2.252,9.823,1.985,12.832,8.365c4.21,8.907,3.727,13.737,0.992,16.39
			c-3.587,2.538-10.388,3.141-22.11-0.087c-14.94-4.468-32.151-4.936-30.455,11.393c0.837,8.034,5.007,14.696,10.226,18.378
			c4.404,3.106,9.553,4.089,14.078,1.982c8.111-3.762,9.81-15.178,9.096-27.357c-0.001,0-0.001,0-0.002-0.001
			c9.411,4.217,23.515,5.122,25.098-6.07C75.766,30.55,75.68,23.451,69.405,15.287z M29.892,61.905
			c-4.446-2.655-6.884-6.45-7.827-10.32c-0.804-3.683-0.504-7.222,0.683-9.768c3.734-7.248,14.665-7.617,24.787-3.649
			C48.21,50.583,44.756,70.748,29.892,61.905z"/>
	</g>
</g>
</svg>
