<?xml version="1.0" encoding="utf-8"?>
<!-- Generator: Adobe Illustrator 15.1.0, SVG Export Plug-In . SVG Version: 6.00 Build 0)  -->
<!DOCTYPE svg PUBLIC "-//W3C//DTD SVG 1.1//EN" "http://www.w3.org/Graphics/SVG/1.1/DTD/svg11.dtd">
<svg version="1.1" id="Layer_1" xmlns="http://www.w3.org/2000/svg" xmlns:xlink="http://www.w3.org/1999/xlink" x="0px" y="0px"
	 width="140px" height="120px" viewBox="0 0 140 120" enable-background="new 0 0 140 120" xml:space="preserve">
<g>
	<g>
		<path fill="#FFFFFF" d="M126.649,48.342h-16.178c-0.708,0-1.276,0.569-1.276,1.276v6.219c0,0.712,0.568,1.281,1.276,1.281h16.178
			c0.696,0,1.267-0.568,1.267-1.281v-6.218C127.916,48.912,127.346,48.342,126.649,48.342z"/>
		<path fill="#FFFFFF" d="M140,69.771l-0.021-32.286H0v45.028h121.878l-0.01-12.684L140,69.771z M38.191,52.588h-0.004
			c-0.015,0.691-0.584,1.241-1.281,1.241h-4.123c-0.711,0-1.275-0.565-1.275-1.275l0.01-1.958c0-1.172-0.958-2.13-2.136-2.13H14.946
			c-1.178,0-2.13,0.958-2.13,2.13v5.601l5.806,5.743v6.459c0,1.182,0.958,2.131,2.125,2.131h8.634c1.179,0,2.136-0.949,2.136-2.131
			l-0.01-1.424c0-0.711,0.565-1.285,1.275-1.285h4.123c0.707,0,1.281,0.574,1.281,1.285l0.004,7.107
			c0,1.408-1.139,2.553-2.557,2.553H8.609c-1.409,0-2.553-1.145-2.553-2.553V44.995c0-1.408,1.144-2.553,2.553-2.553h27.025
			c1.418,0,2.557,1.145,2.557,2.553V52.588z M76.864,75.357c0,0.707-0.568,1.275-1.276,1.275h-4.147c-0.707,0-1.29-0.568-1.29-1.275
			l0.014-10.021l-0.014,0.127c0-1.178-0.973-2.131-2.146-2.131h-8.6c-1.173,0-2.121,0.836-2.121,2.004l-0.054,0.127v8.619
			c0,1.414-1.144,2.553-2.552,2.553h-7.456c-1.404,0-2.552-1.139-2.552-2.553l-0.05-30.363c0-0.707,0.569-1.277,1.276-1.277h4.146
			c0.707,0,1.306,0.57,1.306,1.277v11.382c0,1.174,0.976,2.126,2.154,2.126h14.538c1.178,0,2.126-0.953,2.126-2.126V43.719
			c0-0.707,0.565-1.277,1.272-1.277h4.147c0.706,0,1.275,0.57,1.275,1.277L76.864,75.357L76.864,75.357z M96.228,74.082
			c0,1.414-1.139,2.562-2.548,2.562h-7.515c-1.414,0-2.522-1.148-2.522-2.562V43.729c0-0.711,0.604-1.275,1.306-1.275h4.266
			c0.706,0,1.274,0.565,1.274,1.275v12.546l5.739,5.772V74.082z M115.247,65.369v8.713c0,1.414-1.154,2.553-2.562,2.553h-7.553
			c-1.415,0-2.564-1.139-2.564-2.553V44.995c0-1.403,1.149-2.553,2.564-2.553h26.739c1.413,0,2.558,1.149,2.558,2.553v15.687
			c0,1.404-1.145,2.553-2.558,2.553h-14.479C116.214,63.234,115.247,64.191,115.247,65.369z"/>
	</g>
</g>
</svg>
