<?xml version="1.0" encoding="utf-8"?>
<!-- Generator: Adobe Illustrator 16.0.0, SVG Export Plug-In . SVG Version: 6.00 Build 0)  -->
<!DOCTYPE svg PUBLIC "-//W3C//DTD SVG 1.1//EN" "http://www.w3.org/Graphics/SVG/1.1/DTD/svg11.dtd">
<svg version="1.1" id="Layer_1" xmlns="http://www.w3.org/2000/svg" xmlns:xlink="http://www.w3.org/1999/xlink" x="0px" y="0px"
	 width="82.474px" height="120px" viewBox="0 0 82.474 120" enable-background="new 0 0 82.474 120" xml:space="preserve">
<g>
	<g>
		<path class="logo" fill="#fff" d="M13.275,72.703c4.024-0.214,6.905-3.341,6.689-7.383c-0.138-2.591-2.573-6.714-7.498-6.452
			c-4.458,0.237-6.956,3.758-6.769,7.282C5.859,69.169,8.494,72.959,13.275,72.703z M11.173,59.622
			c3.218-0.171,6.693,3.158,6.94,7.796c0.156,2.946-1.367,4.471-3.541,4.586c-3.362,0.179-6.582-3.093-6.811-7.406
			C7.573,61.075,8.854,59.745,11.173,59.622z"/>
		<path class="logo" fill="#fff" d="M25.659,64.454c0.19,0.28,0.467,0.765,0.702,1.328c0.505-0.152,1.11-0.812,1.453-1.067
			c-0.13-1.273-1.297-1.745-2.312-1.603c-0.285,0.045-1.273,1.75-1.418,2.448c-0.134-0.728-0.283-1.559-0.483-2.021
			c-0.059-0.136-0.097-0.148-0.144-0.104c-0.441,0.324-1.795,0.866-2.275,0.942c-0.054,0.009-0.009,0.402,0.045,0.394
			c0.409-0.063,0.648,0.189,0.749,0.482c0.46,1.294,0.821,3.114,1.162,5.157c0.078,0.498-0.032,0.953-0.672,1.054
			c-0.143,0.023-0.205,0.087-0.2,0.123c0.006,0.034,0.067,0.079,0.228,0.055c0.619-0.116,1.198-0.262,1.681-0.32
			c0.444-0.071,1.339-0.175,1.929-0.25c0.198-0.013,0.205-0.086,0.199-0.123c-0.008-0.053-0.12-0.071-0.228-0.054
			c-0.764,0.119-1.143-0.204-1.23-0.754c-0.356-2.258-0.572-3.28-0.594-3.879C24.231,65.683,24.717,64.604,25.659,64.454z"/>
		<path class="logo" fill="#fff" d="M29.08,67.192c0.509,2.413,2.363,3.273,4.055,2.917c0.545-0.115,1.258-0.927,1.754-1.713
			c0.056,0.266,0.178,0.754,0.24,0.962c0.058,0.19,0.228,0.209,0.276,0.18c0.413-0.308,1.835-0.809,2.311-0.908
			c0.088-0.02,0.211-0.045,0.189-0.15c-0.02-0.088-0.125-0.066-0.23-0.044c-0.441,0.094-1.209-0.15-1.209-0.15
			c-0.104-0.491-0.619-3.198-1.131-5.979c-0.481-2.64-1.032-5.339-1.246-6.269c-0.029-0.14-0.047-0.137-0.149-0.097
			c-0.442,0.167-2.084,0.586-2.56,0.687c-0.158,0.033-0.222,0.083-0.207,0.153c0.016,0.071,0.128,0.084,0.233,0.062
			c0.406-0.085,0.765-0.124,0.863,0.168c0.494,1.386,1.262,5.032,1.262,5.032c-0.599,0.124-1.93,0.442-2.929,1.205
			C29.463,64.113,28.772,65.729,29.08,67.192z M31.054,63.374c0.616-0.479,1.93-0.536,2.687-0.346c0,0,0.996,4.555,1.11,5.102
			c-0.405,0.343-0.792,0.516-1.197,0.602c-1.32,0.277-2.668-0.707-3.051-2.522C30.287,64.711,30.505,63.82,31.054,63.374z"/>
		<path class="logo" fill="#fff" d="M44.377,62.076c0.046-0.181,0.052-0.368,0.025-0.602c-0.625-1.156-2.331-1.895-3.601-1.556
			c-1.878,0.501-3.093,2.931-2.563,4.914c0.646,2.417,2.893,3.513,5.172,2.905c1.026-0.274,1.763-1.422,2.174-2.258
			c0.013-0.022,0.078-0.263-0.014-0.332c-0.066-0.038-0.179,0.029-0.264,0.2c-0.211,0.467-0.616,0.836-1.067,0.956
			c-1.27,0.339-2.271,0.216-3.115-0.359c-0.573-0.407-0.997-0.946-1.387-1.568c0.791-0.249,2.772-1.132,4.351-1.851
			C44.27,62.44,44.311,62.317,44.377,62.076z M42.684,62.641c-0.613,0.424-2.175,1.063-3.184,1.334
			c-0.113-0.213-0.19-0.435-0.251-0.659c-0.418-1.566-0.271-1.996,0.772-2.275c1.025-0.273,1.982,0.31,2.817,1.205
			C42.794,62.424,42.73,62.534,42.684,62.641z"/>
		<path class="logo" fill="#fff" d="M49.576,57.514c-0.276,0.077-1.06,1.885-1.121,2.595c-0.218-0.705-0.463-1.516-0.716-1.949
			c-0.073-0.128-0.113-0.137-0.155-0.087c-0.399,0.373-1.681,1.069-2.148,1.201c-0.053,0.015,0.037,0.401,0.089,0.386
			c0.398-0.111,0.667,0.112,0.802,0.393c0.606,1.231,1.178,2.998,1.754,4.984c0.137,0.486,0.079,0.95-0.544,1.125
			c-0.139,0.039-0.193,0.111-0.185,0.145c0.011,0.035,0.077,0.073,0.233,0.029c0.602-0.188,1.158-0.401,1.631-0.514
			c0.434-0.122,1.311-0.331,1.887-0.474c0.195-0.037,0.193-0.109,0.184-0.146c-0.015-0.052-0.128-0.057-0.232-0.028
			c-0.745,0.209-1.159-0.067-1.31-0.604c-0.617-2.201-0.952-3.19-1.043-3.782c-0.086-0.573,0.271-1.702,1.188-1.96
			c0.222,0.256,0.554,0.705,0.853,1.237c0.482-0.21,1.008-0.937,1.318-1.229C51.784,57.586,50.569,57.254,49.576,57.514z"/>
		<path class="logo" fill="#fff" d="M51.368,51.48c0.021,0.087,0.111,0.157,0.269,0.121c0.964-0.229,0.954-0.115,1.105,0.293
			c0.56,1.347,2.131,6.969,3.082,11.219c0.117,0.49,0.131,0.709-0.814,0.933c-0.14,0.034-0.193,0.121-0.186,0.156
			c0.009,0.034,0.078,0.092,0.235,0.055c0.561-0.132,1.429-0.376,1.936-0.495c0.648-0.153,1.638-0.351,2.329-0.478
			c0.14-0.032,0.193-0.12,0.181-0.173c-0.013-0.052-0.117-0.101-0.257-0.069c-1.156,0.275-1.398,0.11-1.548-0.521l-1.293-5.613
			c0.72-0.169,1.818-0.375,2.907-0.539c0.836-0.143,1.121-0.341,1.084-0.498c-0.017-0.07-0.086-0.127-0.203-0.155
			c-0.73-0.196-0.897-0.509-1.02-0.479c-0.088,0.021-0.146,0.09-0.202,0.159c-0.28,0.306-0.683,0.476-1.113,0.615
			c-0.771,0.256-1.535,0.548-1.535,0.548c-0.073-0.315-1.1-4.253-1.291-5.688c0.399-0.112,1.79-0.406,2.561-0.515
			c0.699-0.091,1.434-0.117,2.131-0.061c0.323,0.035,0.463,0.002,0.477-0.094c0.024-0.135-0.674-0.506-1.362-0.602
			c-0.615-0.096-0.895-0.104-1.018-0.074c-0.171,0.059,0.003,0.166-0.015,0.171c-2.071,0.546-4.76,1.146-6.246,1.59
			C51.404,51.323,51.352,51.41,51.368,51.48z"/>
		<path class="logo" fill="#fff" d="M66.248,61.977c2.289-0.391,3.724-2.149,3.316-4.545c-0.398-2.343-2.472-3.906-4.779-3.515
			c-2.483,0.423-3.69,2.454-3.307,4.707C61.88,60.984,64.118,62.338,66.248,61.977z M63.658,54.803
			c1.97-0.334,4.33,1.947,4.749,4.414c0.214,1.26-0.163,1.726-1.085,1.883c-2.183,0.371-4.352-2.182-4.698-4.222
			C62.4,55.565,62.842,54.942,63.658,54.803z"/>
		<path class="logo" fill="#fff" d="M70.924,60.799c-0.27,0.002-0.287,0.2,0.001,0.199c1.134-0.042,1.602-0.101,2.826-0.016
			c0.307,0.017,0.286-0.2-0.001-0.199c-0.9,0.006-1.028-0.354-1.03-0.695c0-0.146,0.75-1.121,1.68-2.188
			c0.509,0.809,1.217,1.902,1.798,2.672c0.417,0.575,1.714,0.604,2.646,0.256c0.27-0.108,0.197-0.252-0.02-0.216
			c-0.521,0.094-0.665,0.095-0.756-0.067c-0.473-0.79-1.489-2.529-2.398-4.127c0.786-0.905,1.556-1.755,2.021-2.28
			c0.304-0.308,0.86-0.634,1.076-0.635c0.252-0.002,0.269-0.29-0.002-0.289c-1.133,0.062-1.421,0.099-2.663,0.015
			c-0.271-0.017-0.269,0.29,0.001,0.288c0.937-0.004,0.831,0.536,0.652,0.771c-0.089,0.109-0.626,0.778-1.359,1.683
			c-0.689-1.222-1.29-2.279-1.472-2.639c-0.091-0.162-0.505-0.177-0.92-0.12c-0.521,0.074-1.797,0.459-2.102,0.623
			c-0.054,0.036,0.235,0.358,0.344,0.322c0.216-0.073,0.468-0.111,0.683-0.201c0.326,0.376,1.198,1.847,1.78,2.798
			c0.036,0.072,0.218,0.341,0.453,0.753c-0.804,0.994-1.645,2.007-2.164,2.551C71.714,60.362,71.121,60.798,70.924,60.799z"/>
		<path class="logo" fill="#fff" d="M77.084,66.385c-2.769-0.217-5.6,0.049-8.392,0.503c-1.95,0.318-3.882,0.728-5.761,1.132
			c-9.502,2.046-18.671,5.243-28.232,7.069c-2.222,0.425-4.457,0.807-6.702,1.122c-3.889,0.547-7.808,0.892-11.729,0.892
			c-3.187-0.002-6.401-0.536-9.373-1.696c-2.045-0.8-4.511-2.117-5.382-4.268c-0.305-0.756-0.526,0.389-0.309,0.932
			c0.875,2.159,2.727,3.471,4.758,4.404c3.052,1.404,5.973,1.959,9.306,2.051c5.177,0.144,10.42-0.494,15.559-1.376
			c1.465-0.251,2.922-0.521,4.367-0.802c9.509-1.838,18.643-5.047,28.106-7.058c1.499-0.318,3.018-0.623,4.548-0.877
			c0.427-0.071,0.854-0.14,1.282-0.2c-4.49,8.778-10.148,11.715-24.666,11.715l-0.505-0.001l-0.499,0.001
			c-6.404-0.001-11.084-0.572-14.7-1.964c-0.093,0.074-0.187,0.148-0.278,0.222c-9.65,7.706-7.324,39.392,21.947,41.814
			c-7.235-14.251-4.655-20.878,9.597-27.804c14.243-6.921,21.595-14.13,22.202-21.35c0.002-0.013,0.001-0.025,0.002-0.038
			c0.021-0.083,0.034-0.161,0.04-0.23C82.523,67.274,79.771,66.597,77.084,66.385z M45.264,103.184
			c-2.002,4.615,0.116,9.912,2.065,14.774c-8.496-0.914-17.655-8.646-20.644-16.505c-0.819-2.26-1.425-4.583-1.522-6.995
			c-0.045-1.076,0.008-2.305,0.404-3.355c0.892,3.87,2.609,7.875,5.257,10.861c0.233,0.264,0.512-0.261,0.521-0.449
			c0.232-5.045,3.439-9.709,8.104-11.568c-1.854,3.32-3.039,7.699-1.63,11.362c0.119,0.309,0.458-0.031,0.516-0.21
			c0.702-2.212,2.269-4.36,4.486-5.176c-1.094,2.045-2.337,4.607-2.121,6.911c0.033,0.349,0.37,0.151,0.482-0.038
			c2.065-3.513,5.753-6.553,9.896-6.869C48.357,97.61,46.527,100.27,45.264,103.184z"/>
		<path class="logo" fill="#fff" d="M82.122,45.426c-1.672-1.583-3.739-2.279-6.115-2.585c-0.801-0.104-1.637-0.162-2.505-0.194
			c-3.143-0.12-6.323,0.297-9.405,0.903c-5.306,1.044-10.537,2.52-15.777,3.844c-6.957,1.76-13.935,3.459-20.978,4.839
			c-4.442,0.872-9.069,1.747-13.647,1.688c-0.004-0.013-0.007-0.026-0.01-0.04c-0.07-0.262-0.141-0.526-0.21-0.794
			c-0.01-0.038-0.02-0.076-0.029-0.114c-0.064-0.25-0.129-0.503-0.192-0.759c-0.023-0.09-0.045-0.181-0.066-0.271
			c-0.053-0.21-0.104-0.42-0.155-0.632c-0.075-0.312-0.149-0.625-0.222-0.94c-0.001-0.002-0.001-0.003-0.001-0.004
			c-0.07-0.304-0.14-0.608-0.209-0.916c-0.002-0.007-0.004-0.016-0.005-0.023c-0.066-0.299-0.133-0.601-0.198-0.904
			c-0.005-0.021-0.009-0.042-0.014-0.063c-0.063-0.292-0.125-0.584-0.187-0.879c-0.007-0.032-0.013-0.064-0.02-0.096
			c-0.059-0.283-0.117-0.568-0.175-0.854c-0.01-0.05-0.02-0.101-0.029-0.149c-0.055-0.271-0.107-0.542-0.16-0.813
			c-0.013-0.067-0.025-0.137-0.039-0.204c-0.048-0.256-0.098-0.51-0.146-0.766c-0.017-0.089-0.032-0.178-0.048-0.267
			c-0.044-0.237-0.088-0.476-0.131-0.713c-0.021-0.113-0.039-0.225-0.059-0.336c-0.039-0.218-0.077-0.435-0.114-0.652
			c-0.024-0.135-0.047-0.27-0.069-0.404c-0.033-0.197-0.067-0.395-0.1-0.592c-0.027-0.163-0.054-0.327-0.08-0.489
			c-0.027-0.169-0.056-0.339-0.082-0.508c-0.034-0.217-0.067-0.436-0.102-0.652c-0.018-0.116-0.037-0.233-0.055-0.352
			c-0.051-0.335-0.101-0.672-0.149-1.008c-1.192,0.337-2.288,0.708-3.17,1.111c-1.877,0.859-7.053,3.476-7.456,7.831
			C0.007,47.737,0.003,47.813,0,47.892c0.003,0.053,0.008,0.106,0.012,0.161c-0.027,2.66,2.108,4.562,4.339,5.621
			c2.971,1.41,6.374,1.775,9.744,1.688c2.056-0.052,4.099-0.272,6.023-0.526c13.426-1.77,26.514-5.837,39.653-8.982
			c3.193-0.764,6.388-1.414,9.668-1.677c1.917-0.152,4.16-0.258,6.339-0.049c2.238,0.213,4.408,0.758,6.088,1.926
			C82.669,46.608,82.592,45.871,82.122,45.426z"/>
		<path class="logo" fill="#fff" d="M11.871,39.573l0.153,0.992l0.227,1.382l0.188,1.093l0.215,1.194l0.156,0.833c0,0,0.18,0.932,0.233,1.202
			l0.222,1.089c0.062,0.292,0.199,0.936,0.199,0.936c0.064,0.3,0.13,0.599,0.196,0.898l0.009,0.041
			c0.067,0.297,0.135,0.592,0.203,0.891c0.216,0.93,0.438,1.836,0.663,2.705c4.364-0.053,8.916-0.945,12.595-1.667
			c7.165-1.405,14.289-3.149,20.921-4.826c1.321-0.333,2.642-0.678,3.963-1.021c3.87-1.008,7.873-2.049,11.872-2.836
			c3.278-0.646,5.985-0.944,8.521-0.944c0.379,0,0.758,0.006,1.135,0.021c0.559,0.021,1.076,0.053,1.559,0.093
			c1.312-7.895,1.938-15.543,1.679-20.626c-0.369-7.64-3.706-13.234-9.916-16.629C61.459,1.437,53.884,0,43.706,0h-0.11
			C33.418,0,25.843,1.437,20.437,4.392c-6.209,3.396-9.546,8.99-9.915,16.631c-0.225,4.416,0.2,10.646,1.199,17.546
			C11.77,38.9,11.819,39.234,11.871,39.573z M28.587,40.127l-2.626-0.112c-0.249-0.01-0.575,0.145-0.726,0.345l-1.581,2.099
			c-0.15,0.2-0.328,0.166-0.395-0.074l-0.705-2.532c-0.067-0.239-0.314-0.503-0.551-0.584l-2.486-0.854
			c-0.235-0.081-0.259-0.262-0.051-0.399l2.19-1.452c0.208-0.139,0.382-0.454,0.386-0.705l0.045-2.627
			c0.005-0.249,0.169-0.327,0.363-0.172l2.059,1.635c0.195,0.154,0.55,0.221,0.788,0.148l2.515-0.77
			c0.238-0.072,0.361,0.059,0.275,0.293l-0.918,2.464c-0.087,0.233-0.041,0.591,0.102,0.796l1.509,2.152
			C28.922,39.979,28.836,40.138,28.587,40.127z M51.79,23.47c0,0-1.309,9.586,0.573,15.129c0.063,0.231,0.066,0.47-0.239,0.664
			c-3.936,1.936-10.335,2.992-16.565,2.396c-0.255-0.605-0.431-1.19-0.467-1.293c-0.067-0.202-0.131-0.396-0.195-0.59
			c2.862,0.24,5.771,0.168,8.454-0.554c0.768-0.207,0.521-0.946-0.236-0.743c-2.609,0.703-5.608,0.695-8.513,0.391
			c-0.193-0.604-0.371-1.175-0.531-1.712c2.592,0.267,5.243,0.229,7.696-0.403c0.737-0.189,0.628-0.959-0.151-0.761
			c-2.414,0.618-5.174,0.595-7.812,0.262c-0.178-0.621-0.332-1.192-0.467-1.72c2.291,0.292,4.652,0.287,6.847-0.248
			c0.703-0.172,0.734-0.974-0.067-0.779c-2.188,0.528-4.667,0.485-7.002,0.117c-0.15-0.641-0.267-1.205-0.356-1.7
			c1.941,0.309,3.954,0.325,5.844-0.103c0.671-0.153,0.841-0.987,0.017-0.801c-1.909,0.43-4.032,0.371-6.007-0.025
			c-0.099-0.725-0.126-1.252-0.117-1.632c1.494,0.276,3.045,0.294,4.524-0.009c0.639-0.131,0.949-0.994,0.1-0.818
			c-1.46,0.298-3.01,0.253-4.476-0.082c0.005-0.005,0.007-0.01,0.007-0.01s-3.66-0.799-5.688-4.105
			c-2.375-3.863-2.014-9.579,2.123-10.836c4.16-1.263,5.94,1.388,5.94,1.388s0.082-2.62,2.82-3.522
			c2.737-0.908,7.256,0.222,7.735,4.566c4.25-5.092,10.499-2.692,10.363,1.509C55.811,21.645,51.79,23.47,51.79,23.47z
			 M63.439,25.705l-0.961,0.938c-0.179,0.175-0.29,0.519-0.248,0.765l0.227,1.322c0.043,0.245-0.104,0.353-0.325,0.236l-1.188-0.625
			c-0.221-0.116-0.582-0.116-0.804,0l-1.188,0.625c-0.22,0.116-0.367,0.009-0.324-0.236l0.227-1.322
			c0.042-0.247-0.069-0.59-0.247-0.765l-0.962-0.938c-0.18-0.173-0.123-0.347,0.124-0.381l1.329-0.194
			c0.246-0.035,0.538-0.248,0.649-0.471l0.594-1.205c0.11-0.224,0.291-0.224,0.401,0l0.595,1.205
			c0.11,0.223,0.403,0.436,0.649,0.471l1.329,0.194C63.562,25.358,63.618,25.532,63.439,25.705z M13.823,15.477
			C17.211,7.34,25.496,3.888,33.733,2.753c5.873-0.811,11.95-0.896,17.849-0.299c5.051,0.512,10.35,1.552,14.731,4.253
			c3.923,2.415,6.807,6.09,7.959,10.581c1.582,6.165,0.758,13.036-0.001,19.265c-0.083,0.687-1.248,1.328-1.121,0.286
			c0.62-5.095,1.192-10.509,0.57-15.635c-0.432-3.563-1.702-7.044-4.123-9.746c-5.111-5.705-13.393-7.251-20.687-7.713
			c-5.989-0.38-12.176-0.304-18.077,0.89c-4.765,0.963-9.816,2.712-13.152,6.435c-3.669,4.097-4.404,9.396-4.278,14.712
			c0.173,7.316,1.26,14.637,2.817,21.776c0.127,0.58-0.939,1.736-1.11,0.955c-1.357-6.224-2.345-12.578-2.727-18.941
			C12.103,24.88,11.981,19.902,13.823,15.477z"/>
	</g>
</g>
</svg>
