<?xml version="1.0" encoding="utf-8"?>
<!-- Generator: Adobe Illustrator 15.1.0, SVG Export Plug-In . SVG Version: 6.00 Build 0)  -->
<!DOCTYPE svg PUBLIC "-//W3C//DTD SVG 1.1//EN" "http://www.w3.org/Graphics/SVG/1.1/DTD/svg11.dtd">
<svg version="1.1" id="Layer_1" xmlns="http://www.w3.org/2000/svg" xmlns:xlink="http://www.w3.org/1999/xlink" x="0px" y="0px"
	 width="170px" height="120px" viewBox="0 0 170 120" enable-background="new 0 0 170 120" xml:space="preserve">
<g>
	<path fill="#FFFFFF" d="M114.014,60.158c-0.943-4.251-2.547-7.441-4.402-9.642c-1.451-1.681-3.974-2.952-7.509-3.823
		c9.511-2.142,14.253-6.898,14.253-14.427c0-10.308-7.117-15.383-21.326-15.383H78.273c0,0,0,1.077,0,2.177
		c3.011,0,3.011,0.975,3.011,2.575v22.913c-0.603,0.02-2.787,0.171-3.492,0.171c-4.873,0-8.235-1.34-10.267-4.017
		c-1.218-1.629-2.477-4.857-3.869-9.687c-1.229-4.369-4.362-14.735-12.843-14.735c-10.24,0-11.383,7.663-11.383,7.663
		c8.423-4.839,13.398-1.936,15.984,9.709c0.942,4.252,2.548,7.44,4.403,9.642c1.45,1.681,3.973,2.952,7.508,3.823
		c-9.512,2.142-14.254,6.982-14.254,14.511c0,10.305,7.12,15.467,21.327,15.467h16.518c0,0,0-1.244,0-2.344
		c-3.01,0-3.01-0.977-3.01-2.577V49.262c0.602-0.02,2.907-0.171,3.612-0.171c4.872,0,8.294,1.339,10.326,4.016
		c1.218,1.63,2.507,4.858,3.899,9.687c1.229,4.37,4.377,14.738,12.857,14.738c10.238,0,11.39-7.666,11.39-7.666
		C121.567,74.705,116.599,71.805,114.014,60.158z M62.569,61.279c0-4.468,1.234-7.405,3.697-9.29
		c2.467-1.887,6.222-2.593,11.267-2.593c0.58,0,3.751,0,3.751,0v23.481h-3.401C67.674,72.878,62.569,68.99,62.569,61.279z
		 M91.897,44.578c-0.579,0-3.99,0-3.99,0V21.097h3.641c10.208,0,15.313,3.805,15.313,11.517c0,4.468-1.233,7.448-3.697,9.332
		C100.698,43.831,96.944,44.578,91.897,44.578z"/>
	<g>
		<path fill="#FFFFFF" d="M6.534,97.781c0.392-0.482,0.591-1.1,0.591-1.838c0-0.93-0.328-1.66-0.975-2.172
			c-0.627-0.498-1.518-0.75-2.649-0.75H0v10.562h1.705v-4.527h1.834l2.015,4.527h1.859l-2.167-4.877
			C5.778,98.49,6.21,98.178,6.534,97.781z M1.705,94.565H3.39c0.7,0,1.229,0.111,1.572,0.342C5.271,95.108,5.42,95.469,5.42,96
			c0,0.52-0.151,0.893-0.463,1.133c-0.331,0.258-0.853,0.387-1.553,0.387H1.705V94.565z"/>
		<path fill="#FFFFFF" d="M19.323,100.358c0,0.527-0.176,0.953-0.537,1.301c-0.363,0.352-0.869,0.521-1.548,0.521
			c-0.679,0-1.185-0.17-1.549-0.521c-0.361-0.348-0.537-0.773-0.537-1.301v-7.336h-1.705v7.254c0,1.062,0.357,1.912,1.062,2.527
			c0.69,0.609,1.609,0.918,2.729,0.918c1.119,0,2.038-0.309,2.73-0.916c0.704-0.619,1.06-1.471,1.06-2.529v-7.254h-1.704V100.358z"
			/>
		<path fill="#FFFFFF" d="M33.373,98.057c0.325-0.189,0.583-0.42,0.772-0.693c0.302-0.432,0.454-0.965,0.454-1.584
			c0-0.783-0.288-1.447-0.855-1.973c-0.56-0.52-1.311-0.785-2.232-0.785h-3.969v10.562h3.391c0.677,0,1.269-0.072,1.759-0.213
			c0.503-0.146,0.918-0.355,1.237-0.627c0.32-0.273,0.558-0.6,0.703-0.965c0.144-0.355,0.215-0.75,0.215-1.176
			c0-0.682-0.2-1.283-0.593-1.795C34.008,98.49,33.714,98.239,33.373,98.057z M29.249,98.838h1.602c0.718,0,1.294,0.16,1.708,0.469
			c0.393,0.297,0.584,0.705,0.584,1.242c0,0.641-0.221,1.494-2.127,1.494h-1.767V98.838z M32.426,96.875
			c-0.324,0.281-0.845,0.422-1.548,0.422h-1.629v-2.736h2.07c1.089,0,1.575,0.414,1.575,1.342
			C32.894,96.283,32.74,96.6,32.426,96.875z"/>
		<rect x="41.128" y="93.022" fill="#FFFFFF" width="1.705" height="10.562"/>
		<polygon fill="#FFFFFF" points="51.315,98.838 54.777,98.838 54.777,97.297 51.315,97.297 51.315,94.565 56.184,94.565 
			56.184,93.022 49.611,93.022 49.611,103.584 56.46,103.584 56.46,102.043 51.315,102.043 		"/>
		<path fill="#FFFFFF" d="M67.778,98.362c-0.317-0.232-0.658-0.428-1.01-0.584c-0.339-0.148-0.765-0.32-1.278-0.516
			c-0.417-0.154-0.745-0.283-0.986-0.389c-0.226-0.098-0.447-0.213-0.656-0.342c-0.185-0.115-0.328-0.248-0.427-0.396
			c-0.091-0.135-0.136-0.287-0.136-0.463c0.008-0.406,0.136-0.705,0.392-0.916c0.271-0.219,0.664-0.332,1.168-0.332
			c0.55,0,0.986,0.141,1.334,0.424c0.351,0.285,0.579,0.641,0.691,1.088l0.073,0.281l1.598-0.354l-0.1-0.314
			c-0.277-0.867-0.731-1.537-1.351-1.988c-0.621-0.449-1.368-0.678-2.218-0.678c-0.474,0-0.917,0.072-1.314,0.213
			c-0.402,0.141-0.756,0.342-1.05,0.6c-0.296,0.262-0.529,0.572-0.69,0.924c-0.159,0.352-0.24,0.73-0.24,1.131
			c0,0.449,0.1,0.848,0.295,1.188c0.19,0.328,0.443,0.609,0.751,0.836c0.29,0.213,0.608,0.398,0.944,0.549
			c0.32,0.145,0.719,0.305,1.229,0.5c0.434,0.152,0.782,0.285,1.042,0.398c0.247,0.104,0.485,0.236,0.708,0.391
			c0.203,0.141,0.362,0.303,0.473,0.484c0.104,0.168,0.155,0.363,0.155,0.59c0,0.447-0.151,0.797-0.462,1.072
			c-0.32,0.281-0.8,0.422-1.43,0.422c-0.6,0-1.07-0.158-1.434-0.482c-0.38-0.338-0.681-0.789-0.891-1.338l-0.105-0.275l-1.59,0.566
			l0.133,0.297c0.163,0.365,0.341,0.699,0.531,0.996c0.196,0.312,0.442,0.602,0.733,0.867c0.298,0.275,0.667,0.496,1.095,0.66
			c0.427,0.164,0.922,0.248,1.474,0.248c0.649,0,1.213-0.088,1.677-0.262c0.474-0.176,0.862-0.42,1.156-0.73
			c0.291-0.307,0.504-0.656,0.631-1.041c0.125-0.375,0.188-0.775,0.188-1.191c0-0.465-0.104-0.881-0.309-1.24
			C68.378,98.906,68.11,98.608,67.778,98.362z"/>
		<path fill="#FFFFFF" d="M79.247,95.096l-2.282,7.416h1.424l0.642-2.131h1.998l0.642,2.131h1.425l-2.281-7.416H79.247z
			 M79.393,99.135l0.637-2.277l0.638,2.277H79.393z"/>
		<polygon fill="#FFFFFF" points="90.564,99.571 88.029,95.096 86.465,95.096 86.465,102.516 87.748,102.516 87.748,97.24 
			90.747,102.516 91.846,102.516 91.846,95.096 90.564,95.096 		"/>
		<path fill="#FFFFFF" d="M98.174,95.096h-2.134v7.416h2.095c1.08,0,1.933-0.35,2.531-1.037c0.588-0.676,0.887-1.574,0.887-2.672
			c0-1.168-0.307-2.088-0.913-2.732C100.03,95.422,99.2,95.096,98.174,95.096z M97.398,96.34h0.757c0.654,0,1.146,0.188,1.502,0.57
			c0.358,0.385,0.539,1.02,0.539,1.895c0,1.682-0.661,2.467-2.079,2.467h-0.719L97.398,96.34L97.398,96.34z"/>
		<path fill="#FFFFFF" d="M117.141,97.781c0.392-0.482,0.591-1.1,0.591-1.838c0-0.93-0.329-1.66-0.977-2.172
			c-0.625-0.498-1.516-0.75-2.648-0.75h-3.501v10.562h1.705v-4.527h1.835l2.013,4.527h1.859l-2.167-4.877
			C116.383,98.49,116.818,98.178,117.141,97.781z M112.312,94.565h1.685c0.7,0,1.228,0.111,1.571,0.342
			c0.308,0.201,0.458,0.562,0.458,1.094c0,0.523-0.152,0.893-0.462,1.133c-0.331,0.258-0.854,0.387-1.554,0.387h-1.699V94.565z"/>
		<path fill="#FFFFFF" d="M127.459,92.883c-1.326,0-2.371,0.488-3.108,1.443c-0.718,0.932-1.083,2.271-1.083,3.977
			c0,1.707,0.365,3.045,1.083,3.975c0.738,0.959,1.783,1.443,3.109,1.443c1.323,0,2.369-0.484,3.106-1.441
			c0.718-0.932,1.083-2.27,1.083-3.977c0-1.705-0.365-3.045-1.083-3.977C129.828,93.371,128.783,92.883,127.459,92.883z
			 M127.459,102.18c-0.795,0-1.389-0.301-1.815-0.918c-0.446-0.645-0.671-1.641-0.671-2.959c0-1.32,0.226-2.316,0.671-2.959
			c0.426-0.619,1.02-0.92,1.815-0.92c0.792,0,1.386,0.301,1.812,0.92c0.446,0.643,0.671,1.639,0.671,2.959
			c0,1.318-0.225,2.314-0.671,2.959C128.845,101.879,128.251,102.18,127.459,102.18z"/>
		<path fill="#FFFFFF" d="M142.806,100.035c-0.08,0.316-0.177,0.613-0.288,0.875c-0.108,0.248-0.246,0.471-0.413,0.664
			c-0.159,0.182-0.359,0.332-0.597,0.439c-0.233,0.111-0.515,0.166-0.838,0.166c-0.768,0-1.355-0.301-1.796-0.916
			c-0.457-0.639-0.689-1.635-0.689-2.963c0-1.303,0.225-2.293,0.665-2.947c0.423-0.627,0.946-0.93,1.6-0.93
			c0.631,0,1.093,0.156,1.415,0.479c0.337,0.336,0.599,0.861,0.777,1.559l0.076,0.303l1.596-0.477l-0.068-0.277
			c-0.242-0.994-0.671-1.77-1.271-2.305c-0.611-0.545-1.414-0.822-2.386-0.822c-1.3,0-2.326,0.494-3.048,1.467
			c-0.703,0.945-1.058,2.275-1.058,3.953c0,1.752,0.368,3.105,1.098,4.016c0.747,0.93,1.759,1.402,3.008,1.402
			c1.052,0,1.899-0.307,2.518-0.906c0.605-0.586,1.036-1.406,1.278-2.445l0.071-0.305l-1.581-0.309L142.806,100.035z"/>
		<polygon fill="#FFFFFF" points="157.57,93.022 155.477,93.022 151.771,97.67 151.771,93.022 150.066,93.022 150.066,103.584 
			151.771,103.584 151.771,100.053 153.037,98.518 155.872,103.584 157.816,103.584 154.205,97.11 		"/>
		<path fill="#FFFFFF" d="M169.695,99.256c-0.2-0.35-0.469-0.648-0.799-0.891c-0.317-0.236-0.658-0.432-1.011-0.588
			c-0.338-0.148-0.765-0.32-1.277-0.516c-0.417-0.152-0.745-0.283-0.984-0.387c-0.226-0.098-0.446-0.213-0.657-0.344
			c-0.185-0.115-0.329-0.248-0.429-0.396c-0.089-0.135-0.135-0.287-0.135-0.463c0.009-0.404,0.139-0.705,0.394-0.916
			c0.27-0.219,0.663-0.332,1.167-0.332c0.542,0,0.991,0.143,1.336,0.424c0.352,0.287,0.575,0.641,0.688,1.088l0.073,0.283
			l1.599-0.355l-0.1-0.312c-0.276-0.867-0.729-1.539-1.35-1.988c-0.622-0.449-1.368-0.68-2.219-0.68
			c-0.476,0-0.916,0.072-1.313,0.213c-0.402,0.141-0.758,0.344-1.05,0.602c-0.298,0.262-0.529,0.572-0.691,0.922
			c-0.16,0.352-0.241,0.734-0.241,1.133c0,0.447,0.1,0.846,0.296,1.186c0.191,0.328,0.443,0.609,0.754,0.836
			c0.29,0.215,0.607,0.398,0.941,0.551c0.321,0.143,0.722,0.307,1.229,0.498c0.437,0.152,0.783,0.285,1.043,0.398
			c0.248,0.107,0.487,0.236,0.708,0.393c0.203,0.141,0.363,0.303,0.473,0.484c0.106,0.166,0.157,0.361,0.157,0.592
			c0,0.445-0.151,0.797-0.465,1.07c-0.317,0.279-0.798,0.42-1.429,0.42c-0.6,0-1.069-0.156-1.435-0.482
			c-0.378-0.336-0.681-0.787-0.891-1.338l-0.107-0.273l-1.588,0.564l0.133,0.299c0.158,0.355,0.337,0.691,0.532,0.996
			c0.193,0.311,0.44,0.6,0.732,0.869c0.298,0.271,0.667,0.492,1.095,0.658c0.426,0.164,0.922,0.248,1.472,0.248
			c0.651,0,1.216-0.088,1.681-0.262c0.472-0.176,0.859-0.42,1.153-0.73c0.291-0.307,0.503-0.658,0.633-1.041
			c0.125-0.373,0.186-0.773,0.186-1.191C170.004,100.03,169.899,99.612,169.695,99.256z"/>
	</g>
</g>
</svg>
