<?xml version="1.0" encoding="utf-8"?>
<!-- Generator: Adobe Illustrator 16.0.0, SVG Export Plug-In . SVG Version: 6.00 Build 0)  -->
<!DOCTYPE svg PUBLIC "-//W3C//DTD SVG 1.1//EN" "http://www.w3.org/Graphics/SVG/1.1/DTD/svg11.dtd">
<svg version="1.1" id="Layer_1" xmlns="http://www.w3.org/2000/svg" xmlns:xlink="http://www.w3.org/1999/xlink" x="0px" y="0px"
	 width="131.699px" height="131.698px" viewBox="0 0 131.699 131.698" enable-background="new 0 0 131.699 131.698"
	 xml:space="preserve">
<g>
	<path fill="#FFF17A" d="M65.849,32.851c-18.225,0-32.998,14.774-32.998,32.998c0,18.225,14.773,32.998,32.998,32.998
		c18.226,0,32.999-14.773,32.999-32.998C98.848,47.625,84.074,32.851,65.849,32.851z M65.849,90.847
		c-13.784,0-24.998-11.213-24.998-24.998c0-13.784,11.214-24.997,24.998-24.997c13.784,0,24.999,11.213,24.999,24.997
		C90.848,79.634,79.632,90.847,65.849,90.847z"/>
	<path fill="#FFF17A" d="M65.849,20c2.209,0,4-1.791,4-4V4c0-2.209-1.791-4-4-4c-2.209,0-4,1.791-4,4v12
		C61.849,18.209,63.64,20,65.849,20z"/>
	<path fill="#FFF17A" d="M65.849,111.698c-2.209,0-4,1.791-4,4v12c0,2.209,1.791,4,4,4c2.209,0,4-1.791,4-4v-12
		C69.849,113.489,68.058,111.698,65.849,111.698z"/>
	<path fill="#FFF17A" d="M27.772,33.429c0.781,0.781,1.805,1.171,2.829,1.171s2.047-0.391,2.829-1.171
		c1.562-1.562,1.562-4.095,0-5.657l-8.485-8.485c-1.562-1.562-4.095-1.562-5.657,0c-1.562,1.562-1.562,4.095,0,5.657L27.772,33.429z
		"/>
	<path fill="#FFF17A" d="M103.926,98.269c-1.562-1.561-4.094-1.561-5.656,0c-1.562,1.562-1.562,4.096,0,5.658l8.484,8.484
		c0.781,0.781,1.805,1.172,2.83,1.172c1.023,0,2.047-0.391,2.828-1.172c1.562-1.562,1.562-4.094,0-5.656L103.926,98.269z"/>
	<path fill="#FFF17A" d="M20,65.85c0-2.209-1.791-4-4-4H4c-2.209,0-4,1.791-4,4s1.791,4,4,4h12C18.209,69.85,20,68.059,20,65.85z"/>
	<path fill="#FFF17A" d="M127.699,61.85h-12.002c-2.209,0-4,1.79-4,3.999s1.791,4,4,4l12.002,0.001c2.209,0,4-1.791,4-4
		S129.908,61.85,127.699,61.85z"/>
	<path fill="#FFF17A" d="M27.773,98.27l-8.486,8.485c-1.562,1.562-1.562,4.095,0,5.656c0.781,0.781,1.805,1.172,2.829,1.172
		c1.023,0,2.047-0.391,2.828-1.171l8.486-8.485c1.562-1.562,1.562-4.095,0-5.656C31.868,96.708,29.335,96.708,27.773,98.27z"/>
	<path fill="#FFF17A" d="M101.098,34.601c1.023,0,2.047-0.391,2.828-1.171l8.486-8.485c1.562-1.562,1.562-4.095,0-5.657
		c-1.561-1.562-4.094-1.562-5.656,0l-8.486,8.485c-1.562,1.562-1.562,4.095,0,5.657C99.051,34.21,100.074,34.601,101.098,34.601z"/>
</g>
</svg>
